<mxfile host="app.diagrams.net" modified="2024-09-16T03:18:08.572Z" agent="Mozilla/5.0 (Windows NT 10.0; Win64; x64) AppleWebKit/537.36 (KHTML, like Gecko) Chrome/128.0.0.0 Safari/537.36 Edg/128.0.0.0" version="24.6.4" etag="rYJhXIanJxhfWjLskZf6" type="github">
  <diagram name="第 1 页" id="b5IKwFEG0tXCkdsM-vEB">
    <mxGraphModel>
      <root>
        <mxCell id="0" />
        <mxCell id="1" parent="0" />
      </root>
    </mxGraphModel>
  </diagram>
</mxfile>
